# WaveFront *.obj file (generated by Autodesk ATF)

mtllib 58108e30-8f44-4630-893e-b195f7bd75de.mtl

g Body1

v 2.000000 6.000000 -38.750000
v 50.500000 6.000000 -38.750000
v 50.500000 6.000000 -36.750000
v 2.000000 6.000000 -36.750000
v 50.500000 7.000000 -36.750000
v 2.000000 7.000000 -36.750000
v 2.000000 7.000000 -2.000000
v 50.500000 7.000000 -2.000000
v 52.500000 7.000000 -40.750000
v 0.000000 7.000000 -40.750000
v 0.000000 7.000000 0.000000
v 52.500000 7.000000 0.000000
v 9.500000 1.800000 -40.750000
v 31.500000 1.800000 -40.750000
v 31.500000 1.800000 -43.750000
v 9.500000 1.800000 -43.750000
v 31.500000 0.000000 -40.750000
v 31.500000 0.000000 -43.750000
v 9.500000 0.000000 -40.750000
v 9.500000 0.000000 -43.750000
v 0.000000 0.000000 -40.750000
v 52.500000 0.000000 -40.750000
v 31.500000 0.000000 0.000000
v 31.500000 0.000000 3.000000
v 9.500000 0.000000 3.000000
v 9.500000 0.000000 0.000000
v 0.000000 0.000000 0.000000
v 52.500000 0.000000 0.000000
v 31.500000 1.800000 0.000000
v 9.500000 1.800000 0.000000
v 9.500000 1.800000 3.000000
v 31.500000 1.800000 3.000000
v 50.500000 2.000000 -2.000000
v 2.000000 2.000000 -2.000000
v 50.500000 2.000000 -38.750000
v 2.000000 2.000000 -38.750000
vt 0.000000 0.000000 0.000000
vt 4.850000 0.000000 0.000000
vt 0.000000 0.200000 0.000000
vt 4.850000 0.200000 0.000000
vt -2.425000 -0.050000 0.000000
vt 2.425000 -0.050000 0.000000
vt -2.425000 0.050000 0.000000
vt 2.425000 0.050000 0.000000
vt 1.837500 2.425000 0.000000
vt 1.837500 -2.425000 0.000000
vt 2.037500 -2.625000 0.000000
vt -1.637500 -2.425000 0.000000
vt -2.037500 -2.625000 0.000000
vt -1.637500 2.425000 0.000000
vt -2.037500 2.625000 0.000000
vt 2.037500 2.625000 0.000000
vt -2.200000 -0.000000 0.000000
vt -0.000000 0.000000 0.000000
vt -2.200000 0.300000 0.000000
vt -0.000000 0.300000 0.000000
vt -0.180000 0.000000 0.000000
vt -0.000000 0.000000 0.000000
vt -0.180000 0.300000 0.000000
vt -0.000000 0.300000 0.000000
vt -0.180000 0.000000 0.000000
vt -0.000000 0.000000 0.000000
vt -0.180000 0.300000 0.000000
vt -0.000000 0.300000 0.000000
vt 1.100000 0.090000 0.000000
vt -1.100000 0.090000 0.000000
vt 1.100000 -0.090000 0.000000
vt -1.100000 -0.090000 0.000000
vt 2.100000 0.000000 0.000000
vt 2.100000 0.180000 0.000000
vt 0.000000 0.000000 0.000000
vt 0.000000 0.700000 0.000000
vt 5.250000 0.700000 0.000000
vt 4.300000 0.180000 0.000000
vt 5.250000 0.000000 0.000000
vt 4.300000 0.000000 0.000000
vt -0.525000 -2.337500 0.000000
vt 1.675000 -2.337500 0.000000
vt -0.525000 -2.037500 0.000000
vt 1.675000 -2.037500 0.000000
vt -0.525000 2.037500 0.000000
vt 1.675000 2.037500 0.000000
vt -0.525000 2.337500 0.000000
vt 1.675000 2.337500 0.000000
vt 2.625000 -2.037500 0.000000
vt 2.625000 2.037500 0.000000
vt -2.625000 2.037500 0.000000
vt -2.625000 -2.037500 0.000000
vt 0.000000 0.000000 0.000000
vt 2.200000 0.000000 0.000000
vt 0.000000 0.300000 0.000000
vt 2.200000 0.300000 0.000000
vt 0.000000 0.000000 0.000000
vt 0.180000 0.000000 0.000000
vt 0.000000 0.300000 0.000000
vt 0.180000 0.300000 0.000000
vt 0.000000 0.000000 0.000000
vt 0.180000 0.000000 0.000000
vt 0.000000 0.300000 0.000000
vt 0.180000 0.300000 0.000000
vt -1.100000 -0.090000 0.000000
vt 1.100000 -0.090000 0.000000
vt -1.100000 0.090000 0.000000
vt 1.100000 0.090000 0.000000
vt 0.000000 0.000000 0.000000
vt 4.850000 0.000000 0.000000
vt 0.000000 0.500000 0.000000
vt 4.850000 0.500000 0.000000
vt 0.000000 0.400000 0.000000
vt 0.000000 0.000000 0.000000
vt 0.200000 0.400000 0.000000
vt 3.675000 0.000000 0.000000
vt 3.675000 0.500000 0.000000
vt 0.200000 0.500000 0.000000
vt 4.850000 0.400000 0.000000
vt 0.000000 0.400000 0.000000
vt 4.850000 0.000000 0.000000
vt -0.000000 0.000000 0.000000
vt 3.475000 0.500000 0.000000
vt 0.000000 0.500000 0.000000
vt 3.475000 0.400000 0.000000
vt 0.000000 0.000000 0.000000
vt 3.675000 0.000000 0.000000
vt 3.675000 0.400000 0.000000
vt 0.000000 0.000000 0.000000
vt 4.075000 0.000000 0.000000
vt 0.000000 0.700000 0.000000
vt 4.075000 0.700000 0.000000
vt 3.150000 0.000000 0.000000
vt 5.250000 0.000000 0.000000
vt 3.150000 0.180000 0.000000
vt 5.250000 0.700000 0.000000
vt 0.000000 0.700000 0.000000
vt 0.950000 0.180000 0.000000
vt 0.000000 0.000000 0.000000
vt 0.950000 0.000000 0.000000
vt 0.000000 0.000000 0.000000
vt 4.075000 0.000000 0.000000
vt 0.000000 0.700000 0.000000
vt 4.075000 0.700000 0.000000
vt 1.837500 2.425000 0.000000
vt -1.837500 2.425000 0.000000
vt 1.837500 -2.425000 0.000000
vt -1.837500 -2.425000 0.000000
vn 0.000000 -0.100000 0.000000
vn 0.000000 -0.100000 0.000000
vn 0.000000 -0.100000 0.000000
vn 0.000000 -0.100000 0.000000
vn 0.000000 0.000000 0.100000
vn 0.000000 0.000000 0.100000
vn 0.000000 0.000000 0.100000
vn 0.000000 0.000000 0.100000
vn 0.000000 0.100000 0.000000
vn 0.000000 0.100000 0.000000
vn 0.000000 0.100000 0.000000
vn 0.000000 0.100000 0.000000
vn 0.000000 0.100000 0.000000
vn 0.000000 0.100000 0.000000
vn 0.000000 0.100000 0.000000
vn 0.000000 0.100000 0.000000
vn 0.000000 0.100000 0.000000
vn 0.000000 0.100000 0.000000
vn 0.000000 0.100000 0.000000
vn 0.000000 0.100000 0.000000
vn 0.100000 0.000000 0.000000
vn 0.100000 0.000000 0.000000
vn 0.100000 0.000000 0.000000
vn 0.100000 0.000000 0.000000
vn -0.100000 0.000000 -0.000000
vn -0.100000 0.000000 -0.000000
vn -0.100000 0.000000 -0.000000
vn -0.100000 0.000000 -0.000000
vn 0.000000 0.000000 -0.100000
vn 0.000000 0.000000 -0.100000
vn 0.000000 0.000000 -0.100000
vn 0.000000 0.000000 -0.100000
vn 0.000000 0.000000 -0.100000
vn 0.000000 0.000000 -0.100000
vn 0.000000 0.000000 -0.100000
vn 0.000000 0.000000 -0.100000
vn 0.000000 0.000000 -0.100000
vn 0.000000 0.000000 -0.100000
vn 0.000000 0.000000 -0.100000
vn 0.000000 0.000000 -0.100000
vn 0.000000 -0.100000 0.000000
vn 0.000000 -0.100000 0.000000
vn 0.000000 -0.100000 0.000000
vn 0.000000 -0.100000 0.000000
vn 0.000000 -0.100000 0.000000
vn 0.000000 -0.100000 0.000000
vn 0.000000 -0.100000 0.000000
vn 0.000000 -0.100000 0.000000
vn 0.000000 -0.100000 0.000000
vn 0.000000 -0.100000 0.000000
vn 0.000000 -0.100000 0.000000
vn 0.000000 -0.100000 0.000000
vn 0.000000 0.100000 0.000000
vn 0.000000 0.100000 0.000000
vn 0.000000 0.100000 0.000000
vn 0.000000 0.100000 0.000000
vn 0.100000 0.000000 0.000000
vn 0.100000 0.000000 0.000000
vn 0.100000 0.000000 0.000000
vn 0.100000 0.000000 0.000000
vn -0.100000 0.000000 0.000000
vn -0.100000 0.000000 0.000000
vn -0.100000 0.000000 0.000000
vn -0.100000 0.000000 0.000000
vn 0.000000 0.000000 0.100000
vn 0.000000 0.000000 0.100000
vn 0.000000 0.000000 0.100000
vn 0.000000 0.000000 0.100000
vn 0.000000 0.000000 -0.100000
vn 0.000000 0.000000 -0.100000
vn 0.000000 0.000000 -0.100000
vn 0.000000 0.000000 -0.100000
vn -0.100000 0.000000 0.000000
vn -0.100000 0.000000 0.000000
vn -0.100000 0.000000 0.000000
vn -0.100000 0.000000 0.000000
vn -0.100000 0.000000 0.000000
vn -0.100000 0.000000 0.000000
vn 0.000000 0.000000 0.100000
vn 0.000000 0.000000 0.100000
vn 0.000000 0.000000 0.100000
vn 0.000000 0.000000 0.100000
vn 0.100000 -0.000000 0.000000
vn 0.100000 -0.000000 0.000000
vn 0.100000 -0.000000 0.000000
vn 0.100000 -0.000000 0.000000
vn 0.100000 -0.000000 0.000000
vn 0.100000 -0.000000 0.000000
vn 0.100000 -0.000000 0.000000
vn 0.100000 -0.000000 0.000000
vn 0.100000 -0.000000 0.000000
vn 0.100000 -0.000000 0.000000
vn -0.000000 0.000000 0.100000
vn -0.000000 0.000000 0.100000
vn -0.000000 0.000000 0.100000
vn -0.000000 0.000000 0.100000
vn -0.000000 0.000000 0.100000
vn -0.000000 0.000000 0.100000
vn -0.000000 0.000000 0.100000
vn -0.000000 0.000000 0.100000
vn -0.100000 0.000000 0.000000
vn -0.100000 0.000000 0.000000
vn -0.100000 0.000000 0.000000
vn -0.100000 0.000000 0.000000
vn 0.000000 0.100000 0.000000
vn 0.000000 0.100000 0.000000
vn 0.000000 0.100000 0.000000
vn 0.000000 0.100000 0.000000
usemtl ABS_(White)
f 1/1/1 2/2/2 4/3/3
f 4/3/3 2/2/2 3/4/4
f 4/5/5 3/6/6 6/7/7
f 6/7/7 3/6/6 5/8/8
f 8/9/9 7/10/10 11/11/11
f 11/11/11 7/10/10 6/12/12
f 11/11/11 6/12/12 10/13/13
f 10/13/13 6/12/12 5/14/14
f 10/13/13 5/14/14 9/15/15
f 9/15/15 5/14/14 12/16/16
f 12/16/16 5/14/14 8/9/9
f 12/16/16 8/9/9 11/11/11
f 13/17/17 14/18/18 16/19/19
f 16/19/19 14/18/18 15/20/20
f 14/21/21 17/22/22 15/23/23
f 15/23/23 17/22/22 18/24/24
f 19/25/25 13/26/26 20/27/27
f 20/27/27 13/26/26 16/28/28
f 16/29/29 15/30/30 20/31/31
f 20/31/31 15/30/30 18/32/32
f 17/33/33 14/34/34 22/35/35
f 22/35/35 14/34/34 9/36/36
f 9/36/36 14/34/34 10/37/37
f 10/37/37 14/34/34 13/38/38
f 10/37/37 13/38/38 21/39/39
f 21/39/39 13/38/38 19/40/40
f 24/41/41 25/42/42 23/43/43
f 23/43/43 25/42/42 26/44/44
f 23/43/43 26/44/44 17/45/45
f 17/45/45 26/44/44 19/46/46
f 17/45/45 19/46/46 18/47/47
f 18/47/47 19/46/46 20/48/48
f 26/44/44 27/49/49 19/46/46
f 19/46/46 27/49/49 21/50/50
f 17/45/45 22/51/51 23/43/43
f 23/43/43 22/51/51 28/52/52
f 29/53/53 30/54/54 32/55/55
f 32/55/55 30/54/54 31/56/56
f 23/57/57 29/58/58 24/59/59
f 24/59/59 29/58/58 32/60/60
f 30/61/61 26/62/62 31/63/63
f 31/63/63 26/62/62 25/64/64
f 25/65/65 24/66/66 31/67/67
f 31/67/67 24/66/66 32/68/68
f 33/69/69 34/70/70 8/71/71
f 8/71/71 34/70/70 7/72/72
f 2/73/73 35/74/74 3/75/75
f 3/75/75 35/74/74 33/76/76
f 3/75/75 33/76/76 8/77/77
f 8/77/77 5/78/78 3/75/75
f 2/79/79 1/80/80 35/81/81
f 35/81/81 1/80/80 36/82/82
f 6/83/83 7/84/84 4/85/85
f 4/85/85 7/84/84 34/86/86
f 4/85/85 34/86/86 36/87/87
f 36/87/87 1/88/88 4/85/85
f 28/89/89 22/90/90 12/91/91
f 12/91/91 22/90/90 9/92/92
f 23/93/93 28/94/94 29/95/95
f 29/95/95 28/94/94 12/96/96
f 29/95/95 12/96/96 11/97/97
f 29/95/95 11/97/97 30/98/98
f 30/98/98 11/97/97 27/99/99
f 30/98/98 27/99/99 26/100/100
f 21/101/101 27/102/102 10/103/103
f 10/103/103 27/102/102 11/104/104
f 33/105/105 35/106/106 34/107/107
f 34/107/107 35/106/106 36/108/108

# 36 vertices
# 108 texture params
# 108 normals
# 68 facets

# 1 groups
